<svg width="512" height="512" viewBox="0 0 512 512" fill="none" xmlns="http://www.w3.org/2000/svg">
<rect width="512" height="512" rx="106" fill="#242424"/>
<path d="M363.2 298.173V148.56L268.963 161.483V316.98L363.2 298.173ZM242.038 316.98V161.483L147.8 148.56V298.173L242.038 316.98ZM369.595 122.189C380.421 120.666 390.125 128.545 390.125 138.789V304.95C390.125 312.882 384.179 319.711 375.933 321.392L263.017 343.981C258.08 344.98 252.976 344.98 248.04 343.981L135.123 321.392C126.821 319.764 120.875 312.882 120.875 304.95V138.789C120.875 128.545 130.579 120.666 141.405 122.189L255.5 137.844L369.595 122.189ZM97.4839 133.484L103.205 134.534C103.037 135.953 102.925 137.371 102.925 138.789V160.17V300.747V335.786L252.022 364.417C253.144 364.627 254.322 364.732 255.5 364.732C256.678 364.732 257.856 364.627 258.978 364.417L408.075 335.786V300.747V160.17V138.789C408.075 137.318 407.963 135.9 407.795 134.534L413.516 133.484C424.623 131.382 435 139.315 435 149.926V342.668C435 350.653 428.998 357.535 420.64 359.111L264.363 389.159C261.446 389.737 258.473 390 255.5 390C252.527 390 249.554 389.737 246.637 389.159L90.36 359.111C82.002 357.535 76 350.653 76 342.668V149.926C76 139.315 86.3773 131.382 97.4839 133.484Z" fill="#D9D9D9"/>
</svg>
